<?xml version="1.0" standalone="no"?>
<!DOCTYPE svg PUBLIC "-//W3C//DTD SVG 20010904//EN"
 "http://www.w3.org/TR/2001/REC-SVG-20010904/DTD/svg10.dtd">
<svg version="1.0" xmlns="http://www.w3.org/2000/svg"
 width="1582.000000pt" height="1200.000000pt" viewBox="0 0 1582.000000 1200.000000"
 preserveAspectRatio="xMidYMid meet">

<g transform="translate(0.000000,1200.000000) scale(0.100000,-0.100000)"
fill="#000000" stroke="none">
<path d="M4355 7914 c-412 -24 -830 -154 -1115 -347 -200 -135 -394 -350 -502
-557 -119 -226 -177 -454 -185 -730 -8 -249 28 -469 113 -698 97 -261 210
-441 419 -667 145 -157 423 -333 645 -409 267 -91 407 -103 1060 -95 267 4
814 7 1215 8 l730 2 110 160 c61 88 130 189 155 224 104 147 515 747 518 756
2 5 -602 9 -1510 9 -1566 0 -1550 0 -1673 38 -137 42 -272 153 -351 289 -75
128 -98 319 -53 447 61 171 205 297 399 347 140 37 216 39 1520 39 l1275 0 0
592 0 593 -1360 1 c-748 0 -1382 -1 -1410 -2z"/>
<path d="M7577 7913 c-4 -3 -7 -271 -7 -595 l0 -588 340 0 340 0 2 398 3 397
233 3 232 2 0 195 0 195 -568 0 c-313 0 -572 -3 -575 -7z"/>
<path d="M8926 7904 c-9 -24 -7 -1157 3 -1172 6 -11 61 -12 292 -5 l284 8 5
395 5 395 90 0 90 0 3 -397 2 -398 295 0 295 0 2 398 3 397 105 0 105 0 3
-398 2 -397 293 2 292 3 0 590 0 590 -1081 3 c-980 2 -1082 1 -1088 -14z"/>
<path d="M11256 7911 c-3 -5 8 -44 25 -87 17 -44 34 -88 39 -99 4 -11 12 -31
18 -45 6 -14 72 -182 147 -375 169 -432 158 -406 169 -402 5 2 65 86 134 188
466 689 551 817 545 823 -10 10 -1071 7 -1077 -3z"/>
<path d="M12478 7908 c-8 -7 -98 -132 -198 -278 -101 -146 -218 -314 -260
-375 -42 -60 -107 -155 -145 -210 -37 -55 -101 -148 -142 -207 -40 -59 -69
-109 -64 -113 6 -3 140 -3 298 1 l288 7 242 346 c133 190 316 453 407 583 91
131 166 242 166 248 0 16 -572 14 -592 -2z"/>
<path d="M4890 6560 c-607 -6 -581 -2 -683 -102 -65 -64 -97 -128 -117 -230
-32 -159 49 -360 174 -433 100 -58 -10 -55 1689 -55 l1562 -1 3 27 4 26 -529
-6 c-290 -4 -994 -7 -1563 -9 l-1035 -2 -48 24 c-107 53 -188 167 -208 293
-33 200 66 366 245 412 51 14 215 16 1275 16 762 0 1217 -3 1219 -9 2 -5 -31
-53 -72 -107 -42 -53 -76 -101 -76 -106 0 -4 13 -8 29 -8 26 0 40 15 124 128
52 70 94 132 93 137 -1 11 -1171 14 -2086 5z"/>
<path d="M9210 6562 l-485 -3 -160 -232 c-88 -127 -193 -279 -234 -337 -41
-58 -108 -154 -151 -215 -42 -60 -144 -207 -227 -325 -562 -804 -713 -1022
-709 -1028 2 -4 224 -6 493 -4 l488 3 29 42 c16 23 81 116 144 207 213 305
268 384 387 555 162 232 295 423 509 730 99 143 233 336 299 429 65 93 114
172 110 175 -4 3 -226 5 -493 3z m423 -39 c4 -3 -10 -29 -30 -57 -20 -28 -139
-197 -263 -376 -125 -179 -255 -365 -290 -415 -35 -49 -131 -187 -213 -305
-462 -664 -612 -877 -630 -897 l-20 -23 -434 0 c-484 0 -461 -4 -405 69 26 32
140 195 520 741 64 91 146 208 182 260 131 185 667 955 685 983 l17 27 437 0
c241 0 441 -3 444 -7z"/>
<path d="M9970 6562 c-6 -2 -30 -31 -54 -65 -45 -65 -457 -655 -856 -1227
-128 -184 -311 -446 -406 -582 -96 -135 -175 -252 -176 -258 -2 -10 105 -12
477 -11 263 2 482 4 486 7 4 2 58 77 120 166 62 90 154 222 204 293 50 72 154
220 230 330 77 110 193 278 260 372 66 95 154 221 195 280 41 60 115 167 165
238 50 72 133 191 185 265 51 74 102 145 113 157 11 13 18 25 15 28 -6 6 -942
12 -958 7z"/>
<path d="M11156 6550 c-20 -24 -385 -547 -1018 -1460 -74 -107 -188 -271 -253
-365 -174 -249 -205 -295 -205 -300 0 -3 216 -5 479 -5 l480 0 137 198 c76
108 179 256 229 327 50 72 154 220 230 330 146 210 371 533 693 995 106 151
192 278 192 283 0 4 -214 8 -476 10 -412 2 -477 0 -488 -13z"/>
</g>
</svg>
